<svg width="90" height="28" viewBox="0 0 90 28" fill="none" xmlns="http://www.w3.org/2000/svg">
<path d="M6 0.5H32C35.0376 0.5 37.5 2.96243 37.5 6V22C37.5 25.0376 35.0376 27.5 32 27.5H6C2.96243 27.5 0.5 25.0376 0.5 22V6C0.5 2.96243 2.96243 0.5 6 0.5Z" stroke="#505050" stroke-opacity="0.32"/>
<path opacity="0.8" d="M12.338 18.62C11.558 18.62 10.892 18.442 10.34 18.086C9.792 17.73 9.372 17.218 9.08 16.55C8.792 15.882 8.648 15.076 8.648 14.132C8.648 13.192 8.792 12.392 9.08 11.732C9.368 11.072 9.786 10.57 10.334 10.226C10.886 9.878 11.554 9.704 12.338 9.704C12.95 9.704 13.492 9.832 13.964 10.088C14.436 10.34 14.816 10.678 15.104 11.102C15.392 11.526 15.562 11.992 15.614 12.5H14.432C14.368 12.16 14.246 11.852 14.066 11.576C13.886 11.3 13.65 11.08 13.358 10.916C13.066 10.752 12.716 10.67 12.308 10.67C11.784 10.67 11.34 10.794 10.976 11.042C10.616 11.286 10.342 11.664 10.154 12.176C9.97 12.688 9.878 13.344 9.878 14.144C9.878 15.352 10.084 16.24 10.496 16.808C10.912 17.372 11.516 17.654 12.308 17.654C12.716 17.654 13.066 17.568 13.358 17.396C13.65 17.224 13.886 16.994 14.066 16.706C14.246 16.418 14.368 16.106 14.432 15.77H15.614C15.57 16.138 15.47 16.494 15.314 16.838C15.162 17.178 14.952 17.482 14.684 17.75C14.416 18.018 14.086 18.23 13.694 18.386C13.306 18.542 12.854 18.62 12.338 18.62ZM19.4537 18.53C19.0257 18.53 18.6937 18.472 18.4577 18.356C18.2217 18.24 18.0557 18.068 17.9597 17.84C17.8677 17.612 17.8217 17.332 17.8217 17V13.106H16.8137V12.296H17.8517L18.1217 10.49H18.9377V12.29H20.3357V13.106H18.9377V16.964C18.9377 17.184 18.9597 17.346 19.0037 17.45C19.0517 17.55 19.1297 17.614 19.2377 17.642C19.3457 17.67 19.4977 17.684 19.6937 17.684H20.3717V18.428C20.2957 18.456 20.1797 18.48 20.0237 18.5C19.8717 18.52 19.6817 18.53 19.4537 18.53ZM21.8438 18.5V12.296H22.8998V13.49C23.0038 13.194 23.1498 12.95 23.3378 12.758C23.5258 12.562 23.7398 12.416 23.9798 12.32C24.2238 12.224 24.4758 12.176 24.7358 12.176C24.8278 12.176 24.9178 12.182 25.0058 12.194C25.0938 12.206 25.1618 12.226 25.2098 12.254V13.328C25.1498 13.3 25.0718 13.282 24.9758 13.274C24.8838 13.262 24.8058 13.256 24.7418 13.256C24.4938 13.24 24.2618 13.256 24.0458 13.304C23.8298 13.348 23.6398 13.426 23.4758 13.538C23.3118 13.65 23.1818 13.798 23.0858 13.982C22.9938 14.162 22.9478 14.382 22.9478 14.642V18.5H21.8438ZM28.0973 18.578C27.7613 18.578 27.4893 18.532 27.2813 18.44C27.0773 18.348 26.9193 18.224 26.8073 18.068C26.6993 17.912 26.6253 17.734 26.5853 17.534C26.5493 17.33 26.5313 17.12 26.5313 16.904V9.584H27.6233V16.796C27.6233 17.108 27.6833 17.342 27.8033 17.498C27.9273 17.654 28.0993 17.74 28.3193 17.756L28.6553 17.762V18.482C28.5633 18.51 28.4673 18.532 28.3673 18.548C28.2673 18.568 28.1773 18.578 28.0973 18.578Z" fill="#73726E"/>
<path opacity="0.8" d="M50.91 16.724L50.898 11.546H51.762L51.768 16.724H50.91ZM48.738 14.576V13.712L53.916 13.706V14.564L48.738 14.576Z" fill="white"/>
<path d="M71 0.5H84C87.0376 0.5 89.5 2.96243 89.5 6V22C89.5 25.0376 87.0376 27.5 84 27.5H71C67.9624 27.5 65.5 25.0376 65.5 22V6C65.5 2.96243 67.9624 0.5 71 0.5Z" stroke="#505050" stroke-opacity="0.32"/>
<path opacity="0.8" d="M74.146 18.5V9.824H75.298V14.312L79.186 9.824H80.512L77.614 13.232L80.764 18.5H79.51L76.804 14.042L75.298 15.764V18.5H74.146Z" fill="#73726E"/>
</svg>
