<svg width="11" height="12" viewBox="0 0 11 12" fill="none" xmlns="http://www.w3.org/2000/svg">
<path d="M5.9982 0.168172C6.19291 0.167791 6.38161 0.235604 6.53154 0.359839C6.70196 0.501128 6.80916 0.704423 6.82948 0.924863C6.84981 1.1453 6.78159 1.36477 6.63987 1.53484L2.90654 6.00151L6.50654 10.4765C6.64635 10.6487 6.71176 10.8695 6.6883 11.09C6.66484 11.3105 6.55444 11.5126 6.38154 11.6515C6.20723 11.8049 5.97685 11.8786 5.74589 11.8548C5.51494 11.8311 5.30435 11.7121 5.16487 11.5265L1.13987 6.52651C0.887107 6.219 0.887106 5.77567 1.13987 5.46817L5.30654 0.468172C5.47609 0.263634 5.73301 0.152199 5.9982 0.168172Z" fill="white"/>
<path opacity="0.3" d="M10.1652 0.168172C10.3599 0.167791 10.5486 0.235604 10.6985 0.359839C10.869 0.501128 10.9762 0.704423 10.9965 0.924863C11.0168 1.1453 10.9486 1.36477 10.8069 1.53484L7.07353 6.00151L10.6735 10.4765C10.8133 10.6487 10.8788 10.8695 10.8553 11.09C10.8318 11.3105 10.7214 11.5126 10.5485 11.6515C10.3742 11.8049 10.1438 11.8786 9.91289 11.8548C9.68193 11.8311 9.47134 11.7121 9.33186 11.5265L5.30686 6.52651C5.0541 6.219 5.0541 5.77567 5.30686 5.46817L9.47353 0.468172C9.64308 0.263634 9.9 0.152199 10.1652 0.168172Z" fill="white"/>
</svg>
