<svg width="11" height="12" viewBox="0 0 11 12" fill="none" xmlns="http://www.w3.org/2000/svg">
<path d="M5.00179 11.8577C4.80708 11.8581 4.61839 11.7903 4.46846 11.666C4.29804 11.5247 4.19084 11.3215 4.17051 11.101C4.15019 10.8806 4.21841 10.6611 4.36013 10.491L8.09346 6.02437L4.49346 1.54937C4.35365 1.37721 4.28824 1.15642 4.3117 0.935888C4.33516 0.715353 4.44556 0.513267 4.61846 0.374373C4.79277 0.221007 5.02315 0.14731 5.25411 0.171039C5.48506 0.194767 5.69565 0.313769 5.83513 0.499373L9.86013 5.49937C10.1129 5.80687 10.1129 6.2502 9.86013 6.55771L5.69346 11.5577C5.52391 11.7622 5.26699 11.8737 5.00179 11.8577Z" fill="white"/>
<path opacity="0.3" d="M0.834803 11.8577C0.640093 11.8581 0.451396 11.7903 0.301469 11.666C0.131047 11.5247 0.0238461 11.3215 0.00352188 11.101C-0.0168024 10.8806 0.0514202 10.6611 0.193136 10.491L3.92647 6.02437L0.326469 1.54937C0.186661 1.37721 0.121245 1.15642 0.144706 0.935888C0.168167 0.715353 0.27857 0.513267 0.451469 0.374373C0.625775 0.221007 0.856159 0.14731 1.08711 0.171039C1.31807 0.194767 1.52866 0.313769 1.66814 0.499373L5.69314 5.49937C5.9459 5.80687 5.9459 6.2502 5.69314 6.55771L1.52647 11.5577C1.35692 11.7622 1.1 11.8737 0.834803 11.8577Z" fill="white"/>
</svg>
